<svg xmlns="http://www.w3.org/2000/svg" viewBox="0 0 96 96">
    <path d="M48 6 82 18v24c0 22-14 38-34 48C28 80 14 64 14 42V18L48 6Z" fill="#C1121F" stroke="#0B5E2B" stroke-width="3"/>
    <path d="M48 20c4 4 8 6 12 8-3 2-5 5-6 8-3-3-7-4-12-4-5 0-9 1-12 4-1-3-3-6-6-8 4-2 8-4 12-8 2 4 6 7 12 7s10-3 12-7Z" fill="#fff"/>
    <text x="48" y="60" text-anchor="middle" font-family="Arial Black,Arial,sans-serif" font-size="20" fill="#fff" font-weight="900" >LFC</text>
    <rect x="28" y="67" width="40" height="4" fill="#fff" opacity=".8"/>
  </svg>